<svg version="1.1" xmlns="http://www.w3.org/2000/svg" xmlns:xlink="http://www.w3.org/1999/xlink" width="197.70166015625" height="225"><defs/><g><g transform="translate(-302,-190) scale(1,1)"><rect fill="#C0C0C0" stroke="none" x="367" y="207" width="81.2109375" height="44" opacity="0.2"/></g><g transform="translate(-302,-190) scale(1,1)"><rect fill="#ffffff" stroke="none" x="360" y="200" width="81.2109375" height="44"/></g><g transform="translate(-302,-190) scale(1,1)"><path fill="none" stroke="#000000" d="M 360 200 L 441.2109375 200 L 441.2109375 244 L 360 244 L 360 200 Z Z" stroke-miterlimit="10"/></g><g transform="translate(-302,-190) scale(1,1)"><path fill="none" stroke="#000000" d="M 360 225 L 441.2109375 225" stroke-miterlimit="10"/></g><g transform="translate(-302,-190) scale(1,1)"><path fill="none" stroke="#000000" d="M 360 235 L 441.2109375 235" stroke-miterlimit="10"/></g><g transform="translate(-302,-190) scale(1,1)"><g><path fill="none" stroke="none"/><text fill="#000000" stroke="none" font-family="Arial" font-size="13px" font-style="normal" font-weight="bold" text-decoration="none" x="367.0009765625" y="219.5">Component</text></g></g><g transform="translate(-302,-190) scale(1,1)"><rect fill="#C0C0C0" stroke="none" x="319" y="327" width="177.70166015625" height="85" opacity="0.2"/></g><g transform="translate(-302,-190) scale(1,1)"><rect fill="#ffffff" stroke="none" x="312" y="320" width="177.70166015625" height="85"/></g><g transform="translate(-302,-190) scale(1,1)"><path fill="none" stroke="#000000" d="M 312 320 L 489.70166015625 320 L 489.70166015625 405 L 312 405 L 312 320 Z Z" stroke-miterlimit="10"/></g><g transform="translate(-302,-190) scale(1,1)"><path fill="none" stroke="#000000" d="M 312 345 L 489.70166015625 345" stroke-miterlimit="10"/></g><g transform="translate(-302,-190) scale(1,1)"><path fill="none" stroke="#000000" d="M 312 368 L 489.70166015625 368" stroke-miterlimit="10"/></g><g transform="translate(-302,-190) scale(1,1)"><g><path fill="none" stroke="none"/><text fill="#000000" stroke="none" font-family="Arial" font-size="13px" font-style="normal" font-weight="bold" text-decoration="none" x="345.927734375" y="339.5">SpecialComponent</text></g></g><g transform="translate(-302,-190) scale(1,1)"><g><path fill="none" stroke="none"/><text fill="#000000" stroke="none" font-family="Arial" font-size="13px" font-style="normal" font-weight="normal" text-decoration="none" x="317" y="362.5">-attributes...</text></g></g><g transform="translate(-302,-190) scale(1,1)"><g><path fill="none" stroke="none"/><text fill="#000000" stroke="none" font-family="Arial" font-size="13px" font-style="normal" font-weight="normal" text-decoration="none" x="317" y="385.5">+Construct(parameters): void</text></g></g><g transform="translate(-302,-190) scale(1,1)"><g><path fill="none" stroke="none"/><text fill="#000000" stroke="none" font-family="Arial" font-size="13px" font-style="normal" font-weight="normal" text-decoration="none" x="317" y="400.5">+Destruct(): void</text></g></g><g transform="translate(-302,-190) scale(1,1)"><path fill="none" stroke="#000000" d="M 400 319 L 400 245" stroke-miterlimit="10"/></g><g transform="translate(-302,-190) scale(1,1)"><path fill="#FFFFFF" stroke="none" d="M 408.419035512032 265.3253497152483 L 400 245 L 391.580964487968 265.3253497152483"/></g><g transform="translate(-302,-190) scale(1,1)"><path fill="none" stroke="#000000" d="M 408.419035512032 265.3253497152483 L 400 245 L 391.580964487968 265.3253497152483 L 408.419035512032 265.3253497152483" stroke-miterlimit="10"/></g></g></svg>