<svg version="1.1" xmlns="http://www.w3.org/2000/svg" xmlns:xlink="http://www.w3.org/1999/xlink" width="681.58349609375" height="842"><defs/><g><g transform="translate(-134,-30) scale(1,1)"><rect fill="#C0C0C0" stroke="none" x="167" y="47" width="483.03662109375" height="190" opacity="0.2"/></g><g transform="translate(-134,-30) scale(1,1)"><rect fill="#ffffff" stroke="none" x="160" y="40" width="483.03662109375" height="190"/></g><g transform="translate(-134,-30) scale(1,1)"><path fill="none" stroke="#000000" d="M 160 40 L 643.03662109375 40 L 643.03662109375 230 L 160 230 L 160 40 Z Z" stroke-miterlimit="10"/></g><g transform="translate(-134,-30) scale(1,1)"><path fill="none" stroke="#000000" d="M 160 65 L 643.03662109375 65" stroke-miterlimit="10"/></g><g transform="translate(-134,-30) scale(1,1)"><path fill="none" stroke="#000000" d="M 160 103 L 643.03662109375 103" stroke-miterlimit="10"/></g><g transform="translate(-134,-30) scale(1,1)"><g><path fill="none" stroke="none"/><text fill="#000000" stroke="none" font-family="Arial" font-size="13px" font-style="italic" font-weight="bold" text-decoration="none" x="378.400146484375" y="59.5">Window</text></g></g><g transform="translate(-134,-30) scale(1,1)"><g><path fill="none" stroke="none"/><text fill="#000000" stroke="none" font-family="Arial" font-size="13px" font-style="normal" font-weight="normal" text-decoration="none" x="165" y="82.5">#width: Integer</text></g></g><g transform="translate(-134,-30) scale(1,1)"><g><path fill="none" stroke="none"/><text fill="#000000" stroke="none" font-family="Arial" font-size="13px" font-style="normal" font-weight="normal" text-decoration="none" x="165" y="97.5">#height: Integer</text></g></g><g transform="translate(-134,-30) scale(1,1)"><g><path fill="none" stroke="none"/><text fill="#000000" stroke="none" font-family="Arial" font-size="13px" font-style="normal" font-weight="normal" text-decoration="none" x="165" y="120.5">«create»#Window()</text></g></g><g transform="translate(-134,-30) scale(1,1)"><g><path fill="none" stroke="none"/><text fill="#000000" stroke="none" font-family="Arial" font-size="13px" font-style="italic" font-weight="normal" text-decoration="none" x="165" y="135.5">#Start(width: Integer, height: Integer, title: String, showWindow: Boolean): Boolean</text></g></g><g transform="translate(-134,-30) scale(1,1)"><g><path fill="none" stroke="none"/><text fill="#000000" stroke="none" font-family="Arial" font-size="13px" font-style="italic" font-weight="normal" text-decoration="none" x="165" y="150.5">#ShouldClose(): Boolean</text></g></g><g transform="translate(-134,-30) scale(1,1)"><g><path fill="none" stroke="none"/><text fill="#000000" stroke="none" font-family="Arial" font-size="13px" font-style="italic" font-weight="normal" text-decoration="none" x="165" y="165.5">#HassMessage(): Boolean</text></g></g><g transform="translate(-134,-30) scale(1,1)"><g><path fill="none" stroke="none"/><text fill="#000000" stroke="none" font-family="Arial" font-size="13px" font-style="italic" font-weight="normal" text-decoration="none" x="165" y="180.5">#Close(): void</text></g></g><g transform="translate(-134,-30) scale(1,1)"><g><path fill="none" stroke="none"/><text fill="#000000" stroke="none" font-family="Arial" font-size="13px" font-style="normal" font-weight="normal" text-decoration="none" x="165" y="195.5">+Create(p: Platform, hInstance: HINSTANCE): Window</text><path fill="none" stroke="#000000" d="M 165 195.5 L 482.5224609375 195.5" stroke-miterlimit="10"/></g></g><g transform="translate(-134,-30) scale(1,1)"><g><path fill="none" stroke="none"/><text fill="#000000" stroke="none" font-family="Arial" font-size="13px" font-style="normal" font-weight="normal" text-decoration="none" x="165" y="210.5">+StartConsole(): void</text><path fill="none" stroke="#000000" d="M 165 210.5 L 287.4716796875 210.5" stroke-miterlimit="10"/></g></g><g transform="translate(-134,-30) scale(1,1)"><g><path fill="none" stroke="none"/><text fill="#000000" stroke="none" font-family="Arial" font-size="13px" font-style="normal" font-weight="normal" text-decoration="none" x="165" y="225.5">+SetConsolePosition(x: Integer, y: Integer): void</text><path fill="none" stroke="#000000" d="M 165 225.5 L 441.39599609375 225.5" stroke-miterlimit="10"/></g></g><g transform="translate(-134,-30) scale(1,1)"><rect fill="#C0C0C0" stroke="none" x="455" y="327" width="293.6923828125" height="280" opacity="0.2"/></g><g transform="translate(-134,-30) scale(1,1)"><rect fill="#ffffff" stroke="none" x="448" y="320" width="293.6923828125" height="280"/></g><g transform="translate(-134,-30) scale(1,1)"><path fill="none" stroke="#000000" d="M 448 320 L 741.6923828125 320 L 741.6923828125 600 L 448 600 L 448 320 Z Z" stroke-miterlimit="10"/></g><g transform="translate(-134,-30) scale(1,1)"><path fill="none" stroke="#000000" d="M 448 345 L 741.6923828125 345" stroke-miterlimit="10"/></g><g transform="translate(-134,-30) scale(1,1)"><path fill="none" stroke="#000000" d="M 448 398 L 741.6923828125 398" stroke-miterlimit="10"/></g><g transform="translate(-134,-30) scale(1,1)"><g><path fill="none" stroke="none"/><text fill="#000000" stroke="none" font-family="Arial" font-size="13px" font-style="normal" font-weight="bold" text-decoration="none" x="580.389404296875" y="339.5">Input</text></g></g><g transform="translate(-134,-30) scale(1,1)"><g><path fill="none" stroke="none"/><text fill="#000000" stroke="none" font-family="Arial" font-size="13px" font-style="normal" font-weight="normal" text-decoration="none" x="453" y="362.5">-pressed: Boolean[121]</text></g></g><g transform="translate(-134,-30) scale(1,1)"><g><path fill="none" stroke="none"/><text fill="#000000" stroke="none" font-family="Arial" font-size="13px" font-style="normal" font-weight="normal" text-decoration="none" x="453" y="377.5">-lastposinst: Vector2f</text></g></g><g transform="translate(-134,-30) scale(1,1)"><g><path fill="none" stroke="none"/><text fill="#000000" stroke="none" font-family="Arial" font-size="13px" font-style="normal" font-weight="normal" text-decoration="none" x="453" y="392.5">-wheel: Integer</text></g></g><g transform="translate(-134,-30) scale(1,1)"><g><path fill="none" stroke="none"/><text fill="#000000" stroke="none" font-family="Arial" font-size="13px" font-style="normal" font-weight="normal" text-decoration="none" x="453" y="415.5">«create»+Input()</text></g></g><g transform="translate(-134,-30) scale(1,1)"><g><path fill="none" stroke="none"/><text fill="#000000" stroke="none" font-family="Arial" font-size="13px" font-style="normal" font-weight="normal" text-decoration="none" x="453" y="430.5">+GetLastposClick(keyID: Integer): Vector2f</text></g></g><g transform="translate(-134,-30) scale(1,1)"><g><path fill="none" stroke="none"/><text fill="#000000" stroke="none" font-family="Arial" font-size="13px" font-style="normal" font-weight="normal" text-decoration="none" x="453" y="445.5">+GetLastposInst(): Vector2f</text></g></g><g transform="translate(-134,-30) scale(1,1)"><g><path fill="none" stroke="none"/><text fill="#000000" stroke="none" font-family="Arial" font-size="13px" font-style="normal" font-weight="normal" text-decoration="none" x="453" y="460.5">+CheckKey(keyID: Integer): Boolean</text></g></g><g transform="translate(-134,-30) scale(1,1)"><g><path fill="none" stroke="none"/><text fill="#000000" stroke="none" font-family="Arial" font-size="13px" font-style="normal" font-weight="normal" text-decoration="none" x="453" y="475.5">+CheckMouse(keyID: Integer): Boolean</text></g></g><g transform="translate(-134,-30) scale(1,1)"><g><path fill="none" stroke="none"/><text fill="#000000" stroke="none" font-family="Arial" font-size="13px" font-style="normal" font-weight="normal" text-decoration="none" x="453" y="490.5">-KeyPressed(key: Integer): void</text></g></g><g transform="translate(-134,-30) scale(1,1)"><g><path fill="none" stroke="none"/><text fill="#000000" stroke="none" font-family="Arial" font-size="13px" font-style="normal" font-weight="normal" text-decoration="none" x="453" y="505.5">-KeyReleased(key: Integer): void</text></g></g><g transform="translate(-134,-30) scale(1,1)"><g><path fill="none" stroke="none"/><text fill="#000000" stroke="none" font-family="Arial" font-size="13px" font-style="normal" font-weight="normal" text-decoration="none" x="453" y="520.5">-SetKey(ID: Integer, tof: Boolean): void</text></g></g><g transform="translate(-134,-30) scale(1,1)"><g><path fill="none" stroke="none"/><text fill="#000000" stroke="none" font-family="Arial" font-size="13px" font-style="normal" font-weight="normal" text-decoration="none" x="453" y="535.5">-MPressed(x: float, y: float, button: Integer): void</text></g></g><g transform="translate(-134,-30) scale(1,1)"><g><path fill="none" stroke="none"/><text fill="#000000" stroke="none" font-family="Arial" font-size="13px" font-style="normal" font-weight="normal" text-decoration="none" x="453" y="550.5">-MReleased(x: float, y: float, button: Integer): void</text></g></g><g transform="translate(-134,-30) scale(1,1)"><g><path fill="none" stroke="none"/><text fill="#000000" stroke="none" font-family="Arial" font-size="13px" font-style="normal" font-weight="normal" text-decoration="none" x="453" y="565.5">-MMove(x: float, y: float): void</text></g></g><g transform="translate(-134,-30) scale(1,1)"><g><path fill="none" stroke="none"/><text fill="#000000" stroke="none" font-family="Arial" font-size="13px" font-style="normal" font-weight="normal" text-decoration="none" x="453" y="580.5">-SetMKey(ID: Integer, tof: Boolean): void</text></g></g><g transform="translate(-134,-30) scale(1,1)"><g><path fill="none" stroke="none"/><text fill="#000000" stroke="none" font-family="Arial" font-size="13px" font-style="normal" font-weight="normal" text-decoration="none" x="453" y="595.5">-MWheel(wheeldata: Integer): void</text></g></g><g transform="translate(-134,-30) scale(1,1)"><rect fill="#C0C0C0" stroke="none" x="151" y="679" width="560.18603515625" height="190" opacity="0.2"/></g><g transform="translate(-134,-30) scale(1,1)"><rect fill="#ffffff" stroke="none" x="144" y="672" width="560.18603515625" height="190"/></g><g transform="translate(-134,-30) scale(1,1)"><path fill="none" stroke="#000000" d="M 144 672 L 704.18603515625 672 L 704.18603515625 862 L 144 862 L 144 672 Z Z" stroke-miterlimit="10"/></g><g transform="translate(-134,-30) scale(1,1)"><path fill="none" stroke="#000000" d="M 144 697 L 704.18603515625 697" stroke-miterlimit="10"/></g><g transform="translate(-134,-30) scale(1,1)"><path fill="none" stroke="#000000" d="M 144 765 L 704.18603515625 765" stroke-miterlimit="10"/></g><g transform="translate(-134,-30) scale(1,1)"><g><path fill="none" stroke="none"/><text fill="#000000" stroke="none" font-family="Arial" font-size="13px" font-style="normal" font-weight="bold" text-decoration="none" x="382.55078125" y="691.5">Win32Window</text></g></g><g transform="translate(-134,-30) scale(1,1)"><g><path fill="none" stroke="none"/><text fill="#000000" stroke="none" font-family="Arial" font-size="13px" font-style="normal" font-weight="normal" text-decoration="none" x="149" y="714.5">-msg: MSG</text></g></g><g transform="translate(-134,-30) scale(1,1)"><g><path fill="none" stroke="none"/><text fill="#000000" stroke="none" font-family="Arial" font-size="13px" font-style="normal" font-weight="normal" text-decoration="none" x="149" y="729.5">-hWnd HWND</text></g></g><g transform="translate(-134,-30) scale(1,1)"><g><path fill="none" stroke="none"/><text fill="#000000" stroke="none" font-family="Arial" font-size="13px" font-style="normal" font-weight="normal" text-decoration="none" x="149" y="744.5">-name: String</text></g></g><g transform="translate(-134,-30) scale(1,1)"><g><path fill="none" stroke="none"/><text fill="#000000" stroke="none" font-family="Arial" font-size="13px" font-style="normal" font-weight="normal" text-decoration="none" x="149" y="759.5">-hInstance: HINSTANCE</text></g></g><g transform="translate(-134,-30) scale(1,1)"><g><path fill="none" stroke="none"/><text fill="#000000" stroke="none" font-family="Arial" font-size="13px" font-style="normal" font-weight="normal" text-decoration="none" x="149" y="782.5">«create»-Win32Window(h: HINSTANCE)</text></g></g><g transform="translate(-134,-30) scale(1,1)"><g><path fill="none" stroke="none"/><text fill="#000000" stroke="none" font-family="Arial" font-size="13px" font-style="normal" font-weight="normal" text-decoration="none" x="149" y="797.5">+Start(width: Integer, height: Integer, title: String, showWindow: Boolean): Boolean</text></g></g><g transform="translate(-134,-30) scale(1,1)"><g><path fill="none" stroke="none"/><text fill="#000000" stroke="none" font-family="Arial" font-size="13px" font-style="normal" font-weight="normal" text-decoration="none" x="149" y="812.5">+ShouldClose(): Boolean</text></g></g><g transform="translate(-134,-30) scale(1,1)"><g><path fill="none" stroke="none"/><text fill="#000000" stroke="none" font-family="Arial" font-size="13px" font-style="normal" font-weight="normal" text-decoration="none" x="149" y="827.5">+HassMessage(): Boolean</text></g></g><g transform="translate(-134,-30) scale(1,1)"><g><path fill="none" stroke="none"/><text fill="#000000" stroke="none" font-family="Arial" font-size="13px" font-style="normal" font-weight="normal" text-decoration="none" x="149" y="842.5">+Close(): void</text></g></g><g transform="translate(-134,-30) scale(1,1)"><g><path fill="none" stroke="none"/><text fill="#000000" stroke="none" font-family="Arial" font-size="13px" font-style="normal" font-weight="normal" text-decoration="none" x="149" y="857.5">-WndProc(hWnd: HWND, message: Integer, wParam: WPARAM, lParam: LPARAM): LRESULT</text><path fill="none" stroke="#000000" d="M 149 857.5 L 700.18603515625 857.5" stroke-miterlimit="10"/></g></g><g transform="translate(-134,-30) scale(1,1)"><path fill="none" stroke="#000000" d="M 421 671 L 404 231" stroke-miterlimit="10"/></g><g transform="translate(-134,-30) scale(1,1)"><path fill="#FFFFFF" stroke="none" d="M 413.19747082686143 250.985157752418 L 404 231 L 396.37195342162147 251.63523456125682"/></g><g transform="translate(-134,-30) scale(1,1)"><path fill="none" stroke="#000000" d="M 413.19747082686143 250.985157752418 L 404 231 L 396.37195342162147 251.63523456125682 L 413.19747082686143 250.985157752418" stroke-miterlimit="10"/></g><g transform="translate(-134,-30) scale(1,1)"><path fill="none" stroke="#000000" d="M 477 671 L 516 601" stroke-miterlimit="10"/></g><g transform="translate(-134,-30) scale(1,1)"><path fill="none" stroke="#000000" d="M 514.7311041208079 611.9265686859036 L 516 601 L 507.3765043063006 607.8290059321067" stroke-miterlimit="10"/></g><g transform="translate(-134,-30) scale(1,1)"><g><path fill="none" stroke="none"/><text fill="#000000" stroke="none" font-family="Arial" font-size="13px" font-style="normal" font-weight="normal" text-decoration="none" x="500.0458984375" y="642.5">-«friend»</text></g></g><g transform="translate(-134,-30) scale(1,1)"><path fill="none" stroke="#000000" d="M 458 231 L 510 319" stroke-miterlimit="10"/></g><g transform="translate(-134,-30) scale(1,1)"><path fill="#000000" stroke="none" d="M 501.2058639031708 312.3921886898576 L 510 319 L 508.45403491745753 308.1091785450518 L 498.8079551332139 300.05961637928505"/></g><g transform="translate(-134,-30) scale(1,1)"><path fill="none" stroke="#000000" d="M 501.2058639031708 312.3921886898576 L 510 319 L 508.45403491745753 308.1091785450518 L 498.8079551332139 300.05961637928505 L 501.2058639031708 312.3921886898576" stroke-miterlimit="10"/></g><g transform="translate(-134,-30) scale(1,1)"><g><path fill="none" stroke="none"/><text fill="#000000" stroke="none" font-family="Arial" font-size="13px" font-style="normal" font-weight="normal" text-decoration="none" x="487.5" y="273.5">#input</text></g></g><g transform="translate(-134,-30) scale(1,1)"><g><path fill="none" stroke="none"/><text fill="#000000" stroke="none" font-family="Arial" font-size="13px" font-style="normal" font-weight="normal" text-decoration="none" x="454.5" y="261.5">1</text></g></g><g transform="translate(-134,-30) scale(1,1)"><g><path fill="none" stroke="none"/><text fill="#000000" stroke="none" font-family="Arial" font-size="13px" font-style="normal" font-weight="normal" text-decoration="none" x="484.5" y="312.5">1</text></g></g><g transform="translate(-134,-30) scale(1,1)"><path fill="#ffffff" stroke="none" d="M 144 312 L 237 312 L 247 322 L 247 402 L 144 402 L 144 312"/></g><g transform="translate(-134,-30) scale(1,1)"><path fill="none" stroke="#000000" d="M 144 312 L 237 312 L 247 322 L 247 402 L 144 402 L 144 312 L 144 312" stroke-miterlimit="10"/></g><g transform="translate(-134,-30) scale(1,1)"><path fill="none" stroke="#000000" d="M 237 312 L 237 322 L 247 322 L 237 312" stroke-miterlimit="10"/></g><g transform="translate(-134,-30) scale(1,1)"><g><path fill="none" stroke="none"/><text fill="#000000" stroke="none" font-family="Arial" font-size="13px" font-style="normal" font-weight="normal" text-decoration="none" x="149" y="330">HINSTANCE</text></g></g><g transform="translate(-134,-30) scale(1,1)"><g><path fill="none" stroke="none"/><text fill="#000000" stroke="none" font-family="Arial" font-size="13px" font-style="normal" font-weight="normal" text-decoration="none" x="149" y="345">ist ein Windows</text><text fill="#000000" stroke="none" font-family="Arial" font-size="13px" font-style="normal" font-weight="normal" text-decoration="none" x="149" y="358">Handle für eine</text><text fill="#000000" stroke="none" font-family="Arial" font-size="13px" font-style="normal" font-weight="normal" text-decoration="none" x="149" y="371">Anwendung</text></g></g><g transform="translate(-134,-30) scale(1,1)"><path fill="none" stroke="#000000" d="M 238 311 L 312 231" stroke-miterlimit="10" stroke-dasharray="3"/></g><g transform="translate(-134,-30) scale(1,1)"><path fill="none" stroke="#000000" d="M 234 404 L 256 432 L 376 671" stroke-miterlimit="10" stroke-dasharray="3"/></g><g transform="translate(-134,-30) scale(1,1)"><path fill="#ffffff" stroke="none" d="M 144 432 L 237 432 L 247 442 L 247 509 L 144 509 L 144 432"/></g><g transform="translate(-134,-30) scale(1,1)"><path fill="none" stroke="#000000" d="M 144 432 L 237 432 L 247 442 L 247 509 L 144 509 L 144 432 L 144 432" stroke-miterlimit="10"/></g><g transform="translate(-134,-30) scale(1,1)"><path fill="none" stroke="#000000" d="M 237 432 L 237 442 L 247 442 L 237 432" stroke-miterlimit="10"/></g><g transform="translate(-134,-30) scale(1,1)"><g><path fill="none" stroke="none"/><text fill="#000000" stroke="none" font-family="Arial" font-size="13px" font-style="normal" font-weight="normal" text-decoration="none" x="149" y="450">HWND</text></g></g><g transform="translate(-134,-30) scale(1,1)"><g><path fill="none" stroke="none"/><text fill="#000000" stroke="none" font-family="Arial" font-size="13px" font-style="normal" font-weight="normal" text-decoration="none" x="149" y="465">ist ein Windows</text><text fill="#000000" stroke="none" font-family="Arial" font-size="13px" font-style="normal" font-weight="normal" text-decoration="none" x="149" y="478">Handle für ein</text><text fill="#000000" stroke="none" font-family="Arial" font-size="13px" font-style="normal" font-weight="normal" text-decoration="none" x="149" y="491">Fenster</text></g></g><g transform="translate(-134,-30) scale(1,1)"><path fill="#ffffff" stroke="none" d="M 144 536 L 237 536 L 247 546 L 247 652 L 144 652 L 144 536"/></g><g transform="translate(-134,-30) scale(1,1)"><path fill="none" stroke="#000000" d="M 144 536 L 237 536 L 247 546 L 247 652 L 144 652 L 144 536 L 144 536" stroke-miterlimit="10"/></g><g transform="translate(-134,-30) scale(1,1)"><path fill="none" stroke="#000000" d="M 237 536 L 237 546 L 247 546 L 237 536" stroke-miterlimit="10"/></g><g transform="translate(-134,-30) scale(1,1)"><g><path fill="none" stroke="none"/><text fill="#000000" stroke="none" font-family="Arial" font-size="13px" font-style="normal" font-weight="normal" text-decoration="none" x="149" y="554">MSG</text></g></g><g transform="translate(-134,-30) scale(1,1)"><g><path fill="none" stroke="none"/><text fill="#000000" stroke="none" font-family="Arial" font-size="13px" font-style="normal" font-weight="normal" text-decoration="none" x="149" y="569">ist ein Windows</text><text fill="#000000" stroke="none" font-family="Arial" font-size="13px" font-style="normal" font-weight="normal" text-decoration="none" x="149" y="582">Datentyp für</text><text fill="#000000" stroke="none" font-family="Arial" font-size="13px" font-style="normal" font-weight="normal" text-decoration="none" x="149" y="595">Informationen</text><text fill="#000000" stroke="none" font-family="Arial" font-size="13px" font-style="normal" font-weight="normal" text-decoration="none" x="149" y="608">über die</text><text fill="#000000" stroke="none" font-family="Arial" font-size="13px" font-style="normal" font-weight="normal" text-decoration="none" x="149" y="621">Nachrichten</text><text fill="#000000" stroke="none" font-family="Arial" font-size="13px" font-style="normal" font-weight="normal" text-decoration="none" x="149" y="634">eines Threads</text></g></g><g transform="translate(-134,-30) scale(1,1)"><path fill="none" stroke="#000000" d="M 227 511 L 350 671" stroke-miterlimit="10" stroke-dasharray="3"/></g><g transform="translate(-134,-30) scale(1,1)"><path fill="none" stroke="#000000" d="M 249 634 L 297 671" stroke-miterlimit="10" stroke-dasharray="3"/></g><g transform="translate(-134,-30) scale(1,1)"><path fill="none" stroke="#000000" d="M 347 231 L 328 264 L 406 671" stroke-miterlimit="10"/></g><g transform="translate(-134,-30) scale(1,1)"><path fill="none" stroke="#000000" d="M 399.95289282034275 661.8112843793195 L 406 671 L 408.22145263248046 660.2266463809245" stroke-miterlimit="10"/></g><g transform="translate(-134,-30) scale(1,1)"><g><path fill="none" stroke="none"/><text fill="#000000" stroke="none" font-family="Arial" font-size="13px" font-style="normal" font-weight="normal" text-decoration="none" x="279.13134765625" y="299.5">-«friend»</text></g></g><g transform="translate(-134,-30) scale(1,1)"><rect fill="#C0C0C0" stroke="none" x="671" y="159" width="141.58349609375" height="85" opacity="0.2"/></g><g transform="translate(-134,-30) scale(1,1)"><rect fill="#ffffff" stroke="none" x="664" y="152" width="141.58349609375" height="85"/></g><g transform="translate(-134,-30) scale(1,1)"><path fill="none" stroke="#000000" d="M 664 152 L 805.58349609375 152 L 805.58349609375 237 L 664 237 L 664 152 Z Z" stroke-miterlimit="10"/></g><g transform="translate(-134,-30) scale(1,1)"><path fill="none" stroke="#000000" d="M 664 190 L 805.58349609375 190" stroke-miterlimit="10"/></g><g transform="translate(-134,-30) scale(1,1)"><path fill="none" stroke="#000000" d="M 664 228 L 805.58349609375 228" stroke-miterlimit="10"/></g><g transform="translate(-134,-30) scale(1,1)"><g><path fill="none" stroke="none"/><text fill="#000000" stroke="none" font-family="Arial" font-size="13px" font-style="normal" font-weight="normal" text-decoration="none" x="711.67041015625" y="169.5">«struct»</text></g></g><g transform="translate(-134,-30) scale(1,1)"><g><path fill="none" stroke="none"/><text fill="#000000" stroke="none" font-family="Arial" font-size="13px" font-style="normal" font-weight="bold" text-decoration="none" x="710.956298828125" y="184.5">MOUSE</text></g></g><g transform="translate(-134,-30) scale(1,1)"><g><path fill="none" stroke="none"/><text fill="#000000" stroke="none" font-family="Arial" font-size="13px" font-style="normal" font-weight="normal" text-decoration="none" x="669" y="207.5">+pressed: Boolean</text></g></g><g transform="translate(-134,-30) scale(1,1)"><g><path fill="none" stroke="none"/><text fill="#000000" stroke="none" font-family="Arial" font-size="13px" font-style="normal" font-weight="normal" text-decoration="none" x="669" y="222.5">+lastposClick: Vector2f</text></g></g><g transform="translate(-134,-30) scale(1,1)"><path fill="none" stroke="#000000" d="M 668 319 L 711 238" stroke-miterlimit="10"/></g><g transform="translate(-134,-30) scale(1,1)"><path fill="#000000" stroke="none" d="M 709.9529144653524 248.95005077080157 L 711 238 L 702.5167435635976 245.00245387233912 L 700.6844321844162 257.4316510014485"/></g><g transform="translate(-134,-30) scale(1,1)"><path fill="none" stroke="#000000" d="M 709.9529144653524 248.95005077080157 L 711 238 L 702.5167435635976 245.00245387233912 L 700.6844321844162 257.4316510014485 L 709.9529144653524 248.95005077080157" stroke-miterlimit="10"/></g><g transform="translate(-134,-30) scale(1,1)"><g><path fill="none" stroke="none"/><text fill="#000000" stroke="none" font-family="Arial" font-size="13px" font-style="normal" font-weight="normal" text-decoration="none" x="697.13134765625" y="291.5">-mouseKeys</text></g></g><g transform="translate(-134,-30) scale(1,1)"><g><path fill="none" stroke="none"/><text fill="#000000" stroke="none" font-family="Arial" font-size="13px" font-style="normal" font-weight="normal" text-decoration="none" x="679.5" y="316.5">1</text></g></g><g transform="translate(-134,-30) scale(1,1)"><g><path fill="none" stroke="none"/><text fill="#000000" stroke="none" font-family="Arial" font-size="13px" font-style="normal" font-weight="normal" text-decoration="none" x="707.5" y="268.5">4</text></g></g></g></svg>